<svg width="17" height="20" viewBox="0 0 17 20" fill="none" xmlns="http://www.w3.org/2000/svg">
<path d="M4.8669 0.0594275C4.61771 0.150968 4.54142 0.222166 4.41428 0.466274C4.22612 0.837522 4.34817 1.24437 4.72959 1.49865L4.89741 1.61562H8.39121H11.885L12.0528 1.49865C12.3071 1.33082 12.419 1.14266 12.4444 0.868035C12.4698 0.567986 12.3173 0.273022 12.0528 0.120454C11.8799 0.0136572 11.8036 0.0136572 8.46749 0.00348608C5.70602 -0.00668508 5.02455 0.00348608 4.8669 0.0594275Z" fill="#969CB3"/>
<path d="M0.386504 2.64799C0.142396 2.7853 0 3.03958 0 3.33455C0 3.79225 0.310221 4.09738 0.813693 4.14315C1.07306 4.16858 1.11883 4.18892 1.11883 4.27029C1.11883 4.32623 1.32734 7.33181 1.57653 10.9527C2.00881 17.1114 2.0444 17.5589 2.16137 17.9302C2.45125 18.8557 3.19883 19.5881 4.14475 19.8881C4.50074 20 4.52108 20 8.39121 20C12.2613 20 12.2817 20 12.6377 19.8881C13.5836 19.5881 14.3312 18.8557 14.6211 17.9302C14.738 17.5589 14.7736 17.1063 15.2059 10.9578C15.4551 7.3369 15.6636 4.33132 15.6636 4.27538C15.6636 4.18892 15.7094 4.16858 15.9789 4.14315C16.3196 4.11264 16.4875 4.0211 16.6705 3.75156C16.9045 3.40574 16.7621 2.8565 16.3756 2.63782L16.1823 2.53102H8.38613H0.584842L0.386504 2.64799ZM14.0362 4.24486C14.0362 4.29572 13.8328 7.25553 13.5836 10.8307C13.1666 16.7859 13.1208 17.3402 13.0191 17.5691C12.8818 17.8793 12.7038 18.0675 12.3834 18.2353L12.1291 18.3726H8.39121H4.65331L4.39903 18.2353C4.07864 18.0675 3.90064 17.8793 3.76333 17.564C3.66162 17.3402 3.61585 16.791 3.19883 10.8256C2.94964 7.25553 2.74621 4.29572 2.74621 4.24486C2.74621 4.1635 3.04626 4.15841 8.39121 4.15841C13.7362 4.15841 14.0362 4.1635 14.0362 4.24486Z" fill="#969CB3"/>
</svg>
