<svg width="20" height="20" viewBox="0 0 20 20" fill="none" xmlns="http://www.w3.org/2000/svg">
<path d="M16.5585 0.056169C16.1948 0.150007 15.9524 0.263394 15.6631 0.470619C15.5341 0.568367 12.6681 3.40305 9.29777 6.7773C3.91383 12.1652 3.16703 12.9276 3.13184 13.0644C3.11229 13.1504 2.87379 14.0849 2.60401 15.1406C2.33031 16.2002 2.11136 17.1034 2.11136 17.1542C2.11527 17.3145 2.25603 17.5765 2.38896 17.6547C2.65093 17.815 2.69393 17.8071 3.99984 17.4005C4.67235 17.1933 5.54426 16.9235 5.94307 16.7984C6.34188 16.6772 6.72114 16.5482 6.7837 16.513C6.85017 16.4817 9.68485 13.6666 13.0826 10.261L19.268 4.07164L19.4283 3.7393C19.5144 3.55554 19.616 3.30139 19.6473 3.17237C19.7255 2.86739 19.7216 2.23399 19.6434 1.9251C19.4205 1.04929 18.748 0.349412 17.8683 0.0835383C17.5399 -0.0142094 16.8908 -0.029849 16.5585 0.056169ZM17.6806 1.34644C17.9543 1.46765 18.2319 1.74525 18.357 2.02285C18.443 2.21444 18.4626 2.32001 18.4626 2.54287C18.4587 3.00424 18.3218 3.27793 17.8526 3.7393L17.5946 3.99345L16.6562 3.05507L15.7178 2.11669L15.9837 1.85082C16.3043 1.5302 16.4803 1.40118 16.7461 1.30734C17.0081 1.2135 17.4226 1.22914 17.6806 1.34644ZM11.4443 10.1437L6.16984 15.4182L4.91476 15.8092C4.22271 16.0242 3.65186 16.1963 3.64404 16.1924C3.63622 16.1845 3.78089 15.5863 3.96856 14.8552L4.30482 13.5336L9.57146 8.26697L14.8381 2.99642L15.7765 3.9348L16.7149 4.87317L11.4443 10.1437Z" fill="#969CB3"/>
<path d="M0.324522 18.8355C0.101658 18.9449 0 19.117 0 19.3828C0 19.6409 0.109477 19.8168 0.336252 19.9263C0.492648 20.0045 0.570846 20.0045 7.10821 19.9967L13.7199 19.985L13.8293 19.9029C14.2125 19.6174 14.2125 19.1404 13.8293 18.855L13.7199 18.7729L7.1043 18.7612L0.488738 18.7533L0.324522 18.8355Z" fill="#969CB3"/>
</svg>
