<svg width="173" height="40" viewBox="0 0 173 40" fill="none" xmlns="http://www.w3.org/2000/svg">
<path d="M57.2 16.648H54.44V28H52.256V16.648H50.552V14.848H52.256V13.912C52.256 12.44 52.632 11.368 53.384 10.696C54.152 10.008 55.376 9.664 57.056 9.664V11.488C56.096 11.488 55.416 11.68 55.016 12.064C54.632 12.432 54.44 13.048 54.44 13.912V14.848H57.2V16.648ZM61.9304 10.24V28H59.7464V10.24H61.9304ZM64.8367 21.376C64.8367 20.032 65.1087 18.856 65.6527 17.848C66.1967 16.824 66.9407 16.032 67.8847 15.472C68.8447 14.912 69.9087 14.632 71.0767 14.632C72.2287 14.632 73.2287 14.88 74.0767 15.376C74.9247 15.872 75.5567 16.496 75.9727 17.248V14.848H78.1807V28H75.9727V25.552C75.5407 26.32 74.8927 26.96 74.0287 27.472C73.1807 27.968 72.1887 28.216 71.0527 28.216C69.8847 28.216 68.8287 27.928 67.8847 27.352C66.9407 26.776 66.1967 25.968 65.6527 24.928C65.1087 23.888 64.8367 22.704 64.8367 21.376ZM75.9727 21.4C75.9727 20.408 75.7727 19.544 75.3727 18.808C74.9727 18.072 74.4287 17.512 73.7407 17.128C73.0687 16.728 72.3247 16.528 71.5087 16.528C70.6927 16.528 69.9487 16.72 69.2767 17.104C68.6047 17.488 68.0687 18.048 67.6687 18.784C67.2687 19.52 67.0687 20.384 67.0687 21.376C67.0687 22.384 67.2687 23.264 67.6687 24.016C68.0687 24.752 68.6047 25.32 69.2767 25.72C69.9487 26.104 70.6927 26.296 71.5087 26.296C72.3247 26.296 73.0687 26.104 73.7407 25.72C74.4287 25.32 74.9727 24.752 75.3727 24.016C75.7727 23.264 75.9727 22.392 75.9727 21.4ZM86.5274 28.216C85.5194 28.216 84.6154 28.048 83.8154 27.712C83.0154 27.36 82.3834 26.88 81.9194 26.272C81.4554 25.648 81.1994 24.936 81.1514 24.136H83.4074C83.4714 24.792 83.7754 25.328 84.3194 25.744C84.8794 26.16 85.6074 26.368 86.5034 26.368C87.3354 26.368 87.9914 26.184 88.4714 25.816C88.9514 25.448 89.1914 24.984 89.1914 24.424C89.1914 23.848 88.9354 23.424 88.4234 23.152C87.9114 22.864 87.1194 22.584 86.0474 22.312C85.0714 22.056 84.2714 21.8 83.6474 21.544C83.0394 21.272 82.5114 20.88 82.0634 20.368C81.6314 19.84 81.4154 19.152 81.4154 18.304C81.4154 17.632 81.6154 17.016 82.0154 16.456C82.4154 15.896 82.9834 15.456 83.7194 15.136C84.4554 14.8 85.2954 14.632 86.2394 14.632C87.6954 14.632 88.8714 15 89.7674 15.736C90.6634 16.472 91.1434 17.48 91.2074 18.76H89.0234C88.9754 18.072 88.6954 17.52 88.1834 17.104C87.6874 16.688 87.0154 16.48 86.1674 16.48C85.3834 16.48 84.7594 16.648 84.2954 16.984C83.8314 17.32 83.5994 17.76 83.5994 18.304C83.5994 18.736 83.7354 19.096 84.0074 19.384C84.2954 19.656 84.6474 19.88 85.0634 20.056C85.4954 20.216 86.0874 20.4 86.8394 20.608C87.7834 20.864 88.5514 21.12 89.1434 21.376C89.7354 21.616 90.2394 21.984 90.6554 22.48C91.0874 22.976 91.3114 23.624 91.3274 24.424C91.3274 25.144 91.1274 25.792 90.7274 26.368C90.3274 26.944 89.7594 27.4 89.0234 27.736C88.3034 28.056 87.4714 28.216 86.5274 28.216ZM100.939 14.608C101.931 14.608 102.827 14.824 103.627 15.256C104.427 15.672 105.051 16.304 105.499 17.152C105.963 18 106.195 19.032 106.195 20.248V28H104.035V20.56C104.035 19.248 103.707 18.248 103.051 17.56C102.395 16.856 101.499 16.504 100.363 16.504C99.2105 16.504 98.2905 16.864 97.6025 17.584C96.9305 18.304 96.5945 19.352 96.5945 20.728V28H94.4105V10.24H96.5945V16.72C97.0265 16.048 97.6185 15.528 98.3705 15.16C99.1385 14.792 99.9945 14.608 100.939 14.608ZM115.345 21.4C115.345 20.04 115.617 18.856 116.161 17.848C116.705 16.824 117.457 16.032 118.417 15.472C119.393 14.912 120.505 14.632 121.753 14.632C123.369 14.632 124.697 15.024 125.737 15.808C126.793 16.592 127.489 17.68 127.825 19.072H125.473C125.249 18.272 124.809 17.64 124.153 17.176C123.513 16.712 122.713 16.48 121.753 16.48C120.505 16.48 119.497 16.912 118.729 17.776C117.961 18.624 117.577 19.832 117.577 21.4C117.577 22.984 117.961 24.208 118.729 25.072C119.497 25.936 120.505 26.368 121.753 26.368C122.713 26.368 123.513 26.144 124.153 25.696C124.793 25.248 125.233 24.608 125.473 23.776H127.825C127.473 25.12 126.769 26.2 125.713 27.016C124.657 27.816 123.337 28.216 121.753 28.216C120.505 28.216 119.393 27.936 118.417 27.376C117.457 26.816 116.705 26.024 116.161 25C115.617 23.976 115.345 22.776 115.345 21.4ZM129.923 21.376C129.923 20.032 130.195 18.856 130.739 17.848C131.283 16.824 132.027 16.032 132.971 15.472C133.931 14.912 134.995 14.632 136.163 14.632C137.315 14.632 138.315 14.88 139.163 15.376C140.011 15.872 140.643 16.496 141.059 17.248V14.848H143.267V28H141.059V25.552C140.627 26.32 139.979 26.96 139.115 27.472C138.267 27.968 137.275 28.216 136.139 28.216C134.971 28.216 133.915 27.928 132.971 27.352C132.027 26.776 131.283 25.968 130.739 24.928C130.195 23.888 129.923 22.704 129.923 21.376ZM141.059 21.4C141.059 20.408 140.859 19.544 140.459 18.808C140.059 18.072 139.515 17.512 138.827 17.128C138.155 16.728 137.411 16.528 136.595 16.528C135.779 16.528 135.035 16.72 134.363 17.104C133.691 17.488 133.155 18.048 132.755 18.784C132.355 19.52 132.155 20.384 132.155 21.376C132.155 22.384 132.355 23.264 132.755 24.016C133.155 24.752 133.691 25.32 134.363 25.72C135.035 26.104 135.779 26.296 136.595 26.296C137.411 26.296 138.155 26.104 138.827 25.72C139.515 25.32 140.059 24.752 140.459 24.016C140.859 23.264 141.059 22.392 141.059 21.4ZM151.613 28.216C150.605 28.216 149.701 28.048 148.901 27.712C148.101 27.36 147.469 26.88 147.005 26.272C146.541 25.648 146.285 24.936 146.237 24.136H148.493C148.557 24.792 148.861 25.328 149.405 25.744C149.965 26.16 150.693 26.368 151.589 26.368C152.421 26.368 153.077 26.184 153.557 25.816C154.037 25.448 154.277 24.984 154.277 24.424C154.277 23.848 154.021 23.424 153.509 23.152C152.997 22.864 152.205 22.584 151.133 22.312C150.157 22.056 149.357 21.8 148.733 21.544C148.125 21.272 147.597 20.88 147.149 20.368C146.717 19.84 146.501 19.152 146.501 18.304C146.501 17.632 146.701 17.016 147.101 16.456C147.501 15.896 148.069 15.456 148.805 15.136C149.541 14.8 150.381 14.632 151.325 14.632C152.781 14.632 153.957 15 154.853 15.736C155.749 16.472 156.229 17.48 156.293 18.76H154.109C154.061 18.072 153.781 17.52 153.269 17.104C152.773 16.688 152.101 16.48 151.253 16.48C150.469 16.48 149.845 16.648 149.381 16.984C148.917 17.32 148.685 17.76 148.685 18.304C148.685 18.736 148.821 19.096 149.093 19.384C149.381 19.656 149.733 19.88 150.149 20.056C150.581 20.216 151.173 20.4 151.925 20.608C152.869 20.864 153.637 21.12 154.229 21.376C154.821 21.616 155.325 21.984 155.741 22.48C156.173 22.976 156.397 23.624 156.413 24.424C156.413 25.144 156.213 25.792 155.813 26.368C155.413 26.944 154.845 27.4 154.109 27.736C153.389 28.056 152.557 28.216 151.613 28.216ZM166.024 14.608C167.016 14.608 167.912 14.824 168.712 15.256C169.512 15.672 170.136 16.304 170.584 17.152C171.048 18 171.28 19.032 171.28 20.248V28H169.12V20.56C169.12 19.248 168.792 18.248 168.136 17.56C167.48 16.856 166.584 16.504 165.448 16.504C164.296 16.504 163.376 16.864 162.688 17.584C162.016 18.304 161.68 19.352 161.68 20.728V28H159.496V10.24H161.68V16.72C162.112 16.048 162.704 15.528 163.456 15.16C164.224 14.792 165.08 14.608 166.024 14.608Z" fill="white"/>
<path d="M57.2 16.648V17.348H57.9V16.648H57.2ZM54.44 16.648V15.948H53.74V16.648H54.44ZM54.44 28V28.7H55.14V28H54.44ZM52.256 28H51.556V28.7H52.256V28ZM52.256 16.648H52.956V15.948H52.256V16.648ZM50.552 16.648H49.852V17.348H50.552V16.648ZM50.552 14.848V14.148H49.852V14.848H50.552ZM52.256 14.848V15.548H52.956V14.848H52.256ZM53.384 10.696L53.8504 11.218L53.8511 11.2174L53.384 10.696ZM57.056 9.664H57.756V8.964H57.056V9.664ZM57.056 11.488V12.188H57.756V11.488H57.056ZM55.016 12.064L55.5003 12.5694L55.5008 12.569L55.016 12.064ZM54.44 14.848H53.74V15.548H54.44V14.848ZM57.2 14.848H57.9V14.148H57.2V14.848ZM57.2 15.948H54.44V17.348H57.2V15.948ZM53.74 16.648V28H55.14V16.648H53.74ZM54.44 27.3H52.256V28.7H54.44V27.3ZM52.956 28V16.648H51.556V28H52.956ZM52.256 15.948H50.552V17.348H52.256V15.948ZM51.252 16.648V14.848H49.852V16.648H51.252ZM50.552 15.548H52.256V14.148H50.552V15.548ZM52.956 14.848V13.912H51.556V14.848H52.956ZM52.956 13.912C52.956 12.5462 53.3046 11.7057 53.8504 11.218L52.9176 10.174C51.9594 11.0303 51.556 12.3338 51.556 13.912H52.956ZM53.8511 11.2174C54.4309 10.6979 55.4464 10.364 57.056 10.364V8.964C55.3056 8.964 53.8731 9.31808 52.9169 10.1746L53.8511 11.2174ZM56.356 9.664V11.488H57.756V9.664H56.356ZM57.056 10.788C56.0374 10.788 55.1289 10.9852 54.5312 11.559L55.5008 12.569C55.7031 12.3748 56.1546 12.188 57.056 12.188V10.788ZM54.5317 11.5586C53.9447 12.1211 53.74 12.9719 53.74 13.912H55.14C55.14 13.1241 55.3193 12.7429 55.5003 12.5694L54.5317 11.5586ZM53.74 13.912V14.848H55.14V13.912H53.74ZM54.44 15.548H57.2V14.148H54.44V15.548ZM56.5 14.848V16.648H57.9V14.848H56.5ZM61.9304 10.24H62.6304V9.54H61.9304V10.24ZM61.9304 28V28.7H62.6304V28H61.9304ZM59.7464 28H59.0464V28.7H59.7464V28ZM59.7464 10.24V9.54H59.0464V10.24H59.7464ZM61.2304 10.24V28H62.6304V10.24H61.2304ZM61.9304 27.3H59.7464V28.7H61.9304V27.3ZM60.4464 28V10.24H59.0464V28H60.4464ZM59.7464 10.94H61.9304V9.54H59.7464V10.94ZM65.6527 17.848L66.2687 18.1805L66.2709 18.1764L65.6527 17.848ZM67.8847 15.472L67.532 14.8673L67.5275 14.87L67.8847 15.472ZM74.0767 15.376L73.7233 15.9802V15.9802L74.0767 15.376ZM75.9727 17.248L75.3602 17.5868L76.6727 17.248H75.9727ZM75.9727 14.848V14.148H75.2727V14.848H75.9727ZM78.1807 14.848H78.8807V14.148H78.1807V14.848ZM78.1807 28V28.7H78.8807V28H78.1807ZM75.9727 28H75.2727V28.7H75.9727V28ZM75.9727 25.552H76.6727V22.8797L75.3626 25.2088L75.9727 25.552ZM74.0287 27.472L74.3821 28.0762L74.3855 28.0742L74.0287 27.472ZM67.8847 27.352L67.5201 27.9495L67.8847 27.352ZM65.6527 24.928L66.273 24.6036L65.6527 24.928ZM73.7407 17.128L73.3827 17.7295L73.391 17.7345L73.3995 17.7392L73.7407 17.128ZM69.2767 17.104L68.9294 16.4962L69.2767 17.104ZM67.6687 18.784L68.2837 19.1183L67.6687 18.784ZM67.6687 24.016L67.0507 24.3447L67.0536 24.3503L67.6687 24.016ZM69.2767 25.72L68.9186 26.3216L68.9294 26.3278L69.2767 25.72ZM73.7407 25.72L74.088 26.3278L74.0925 26.3252L73.7407 25.72ZM75.3727 24.016L75.9877 24.3503L75.9907 24.3447L75.3727 24.016ZM65.5367 21.376C65.5367 20.1279 65.7887 19.0699 66.2687 18.1805L65.0367 17.5155C64.4287 18.6421 64.1367 19.9361 64.1367 21.376H65.5367ZM66.2709 18.1764C66.7582 17.2592 67.4146 16.5648 68.2418 16.074L67.5275 14.87C66.4667 15.4992 65.6352 16.3888 65.0345 17.5196L66.2709 18.1764ZM68.2374 16.0766C69.0848 15.5823 70.0261 15.332 71.0767 15.332V13.932C69.7913 13.932 68.6046 14.2417 67.532 14.8674L68.2374 16.0766ZM71.0767 15.332C72.1261 15.332 72.9997 15.557 73.7233 15.9802L74.4301 14.7718C73.4576 14.203 72.3313 13.932 71.0767 13.932V15.332ZM73.7233 15.9802C74.4785 16.4219 75.0134 16.96 75.3602 17.5868L76.5852 16.9092C76.1 16.032 75.3709 15.3221 74.4301 14.7718L73.7233 15.9802ZM76.6727 17.248V14.848H75.2727V17.248H76.6727ZM75.9727 15.548H78.1807V14.148H75.9727V15.548ZM77.4807 14.848V28H78.8807V14.848H77.4807ZM78.1807 27.3H75.9727V28.7H78.1807V27.3ZM76.6727 28V25.552H75.2727V28H76.6727ZM75.3626 25.2088C74.9988 25.8555 74.4452 26.4115 73.6718 26.8698L74.3855 28.0742C75.3402 27.5085 76.0826 26.7845 76.5828 25.8952L75.3626 25.2088ZM73.6753 26.8678C72.9503 27.2918 72.0842 27.516 71.0527 27.516V28.916C72.2932 28.916 73.4111 28.6442 74.3821 28.0762L73.6753 26.8678ZM71.0527 27.516C70.0058 27.516 69.0772 27.2596 68.2493 26.7545L67.5201 27.9495C68.5802 28.5964 69.7636 28.916 71.0527 28.916V27.516ZM68.2493 26.7545C67.4204 26.2487 66.7618 25.5382 66.273 24.6036L65.0324 25.2524C65.6315 26.3978 66.4609 27.3033 67.5201 27.9495L68.2493 26.7545ZM66.273 24.6036C65.7879 23.6762 65.5367 22.606 65.5367 21.376H64.1367C64.1367 22.802 64.4295 24.0998 65.0324 25.2524L66.273 24.6036ZM76.6727 21.4C76.6727 20.3127 76.4529 19.3297 75.9877 18.4737L74.7577 19.1423C75.0925 19.7583 75.2727 20.5033 75.2727 21.4H76.6727ZM75.9877 18.4737C75.5287 17.629 74.8929 16.9695 74.0818 16.5168L73.3995 17.7392C73.9645 18.0545 74.4167 18.515 74.7577 19.1423L75.9877 18.4737ZM74.0987 16.5265C73.3136 16.0592 72.445 15.828 71.5087 15.828V17.228C72.2044 17.228 72.8238 17.3968 73.3827 17.7295L74.0987 16.5265ZM71.5087 15.828C70.5777 15.828 69.713 16.0485 68.9294 16.4962L69.624 17.7118C70.1844 17.3915 70.8076 17.228 71.5087 17.228V15.828ZM68.9294 16.4962C68.1352 16.9501 67.5104 17.6092 67.0536 18.4497L68.2837 19.1183C68.6269 18.4868 69.0742 18.0259 69.624 17.7118L68.9294 16.4962ZM67.0536 18.4497C66.5885 19.3057 66.3687 20.2887 66.3687 21.376H67.7687C67.7687 20.4792 67.9489 19.7343 68.2837 19.1183L67.0536 18.4497ZM66.3687 21.376C66.3687 22.4776 66.5878 23.4745 67.0507 24.3447L68.2867 23.6873C67.9496 23.0535 67.7687 22.2904 67.7687 21.376H66.3687ZM67.0536 24.3503C67.5093 25.1887 68.1308 25.8526 68.9186 26.3215L69.6347 25.1185C69.0786 24.7874 68.6281 24.3153 68.2837 23.6817L67.0536 24.3503ZM68.9294 26.3278C69.713 26.7755 70.5777 26.996 71.5087 26.996V25.596C70.8076 25.596 70.1844 25.4325 69.624 25.1122L68.9294 26.3278ZM71.5087 26.996C72.4396 26.996 73.3044 26.7755 74.088 26.3278L73.3934 25.1122C72.833 25.4325 72.2097 25.596 71.5087 25.596V26.996ZM74.0925 26.3252C74.8974 25.8572 75.5298 25.1928 75.9877 24.3503L74.7577 23.6817C74.4155 24.3112 73.96 24.7828 73.3889 25.1148L74.0925 26.3252ZM75.9907 24.3447C76.4528 23.476 76.6727 22.4877 76.6727 21.4H75.2727C75.2727 22.2963 75.0926 23.052 74.7547 23.6873L75.9907 24.3447ZM83.8154 27.712L83.5335 28.3528L83.5444 28.3574L83.8154 27.712ZM81.9194 26.272L81.3577 26.6897L81.363 26.6967L81.9194 26.272ZM81.1514 24.136V23.436H80.4082L80.4527 24.1779L81.1514 24.136ZM83.4074 24.136L84.1041 24.068L84.0425 23.436H83.4074V24.136ZM84.3194 25.744L83.8942 26.3001L83.902 26.3059L84.3194 25.744ZM88.4234 23.152L88.0803 23.7621L88.0876 23.7662L88.095 23.7702L88.4234 23.152ZM86.0474 22.312L85.8698 22.9891L85.8753 22.9905L86.0474 22.312ZM83.6474 21.544L83.3616 22.183L83.3716 22.1875L83.3817 22.1916L83.6474 21.544ZM82.0634 20.368L81.5217 20.8113L81.529 20.8202L81.5366 20.829L82.0634 20.368ZM82.0154 16.456L81.4458 16.0491L82.0154 16.456ZM83.7194 15.136L83.9986 15.7781L84.0101 15.7728L83.7194 15.136ZM91.2074 18.76V19.46H91.9433L91.9066 18.725L91.2074 18.76ZM89.0234 18.76L88.3251 18.8087L88.3706 19.46H89.0234V18.76ZM88.1834 17.104L87.7336 17.6404L87.742 17.6473L88.1834 17.104ZM84.2954 16.984L83.8849 16.417L84.2954 16.984ZM84.0074 19.384L83.4985 19.8646L83.5123 19.8792L83.5268 19.8929L84.0074 19.384ZM85.0634 20.056L84.7907 20.7007L84.8054 20.7069L84.8203 20.7124L85.0634 20.056ZM86.8394 20.608L86.6528 21.2827L86.6562 21.2836L86.8394 20.608ZM89.1434 21.376L88.8656 22.0185L88.873 22.0217L88.8804 22.0247L89.1434 21.376ZM90.6554 22.48L90.119 22.9299L90.1276 22.9397L90.6554 22.48ZM91.3274 24.424H92.0276L92.0273 24.41L91.3274 24.424ZM90.7274 26.368L90.1525 25.9687L90.7274 26.368ZM89.0234 27.736L89.3078 28.3757L89.3141 28.3728L89.0234 27.736ZM86.5274 27.516C85.5976 27.516 84.7879 27.3612 84.0865 27.0666L83.5444 28.3574C84.4429 28.7348 85.4412 28.916 86.5274 28.916V27.516ZM84.0974 27.0713C83.39 26.76 82.8584 26.3486 82.4759 25.8473L81.363 26.6967C81.9085 27.4114 82.6409 27.96 83.5335 28.3527L84.0974 27.0713ZM82.4812 25.8543C82.101 25.3431 81.8903 24.7626 81.8502 24.0941L80.4527 24.1779C80.5086 25.1094 80.8099 25.9529 81.3577 26.6897L82.4812 25.8543ZM81.1514 24.836H83.4074V23.436H81.1514V24.836ZM82.7107 24.204C82.7944 25.0616 83.2027 25.7713 83.8942 26.3001L84.7447 25.188C84.3481 24.8847 84.1485 24.5224 84.1041 24.068L82.7107 24.204ZM83.902 26.3059C84.6132 26.8342 85.5 27.068 86.5034 27.068V25.668C85.7148 25.668 85.1457 25.4858 84.7369 25.1821L83.902 26.3059ZM86.5034 27.068C87.4325 27.068 88.2565 26.8628 88.8973 26.3715L88.0455 25.2605C87.7263 25.5052 87.2384 25.668 86.5034 25.668V27.068ZM88.8973 26.3715C89.5341 25.8833 89.8914 25.2211 89.8914 24.424H88.4914C88.4914 24.7469 88.3687 25.0127 88.0455 25.2605L88.8973 26.3715ZM89.8914 24.424C89.8914 24.0296 89.8027 23.6501 89.5987 23.3122C89.3948 22.9745 89.1004 22.719 88.7518 22.5338L88.095 23.7702C88.2585 23.857 88.3481 23.9495 88.4002 24.0358C88.4522 24.1219 88.4914 24.2424 88.4914 24.424H89.8914ZM88.7666 22.5419C88.1727 22.2078 87.3086 21.9098 86.2196 21.6335L85.8753 22.9905C86.9302 23.2582 87.6502 23.5202 88.0803 23.7621L88.7666 22.5419ZM86.225 21.6349C85.2659 21.3833 84.4981 21.1364 83.9131 20.8964L83.3817 22.1916C84.0447 22.4636 84.877 22.7287 85.8698 22.9891L86.225 21.6349ZM83.9333 20.905C83.4195 20.6752 82.9732 20.3447 82.5902 19.907L81.5366 20.829C82.0497 21.4153 82.6593 21.8688 83.3616 22.183L83.9333 20.905ZM82.6052 19.9247C82.2985 19.5498 82.1154 19.0308 82.1154 18.304H80.7154C80.7154 19.2732 80.9644 20.1302 81.5217 20.8113L82.6052 19.9247ZM82.1154 18.304C82.1154 17.7816 82.2677 17.3072 82.5851 16.8629L81.4458 16.0491C80.9632 16.7248 80.7154 17.4824 80.7154 18.304H82.1154ZM82.5851 16.8629C82.8998 16.4222 83.3593 16.0559 83.9985 15.7779L83.4403 14.4941C82.6076 14.8561 81.9311 15.3698 81.4458 16.0491L82.5851 16.8629ZM84.0101 15.7728C84.6409 15.4848 85.3792 15.332 86.2394 15.332V13.932C85.2117 13.932 84.27 14.1152 83.4287 14.4992L84.0101 15.7728ZM86.2394 15.332C87.5759 15.332 88.5816 15.6678 89.3231 16.2769L90.2118 15.1951C89.1612 14.3322 87.815 13.932 86.2394 13.932V15.332ZM89.3231 16.2769C90.0497 16.8737 90.453 17.6889 90.5083 18.795L91.9066 18.725C91.8339 17.2711 91.2772 16.0703 90.2118 15.1951L89.3231 16.2769ZM91.2074 18.06H89.0234V19.46H91.2074V18.06ZM89.7217 18.7113C89.6609 17.8399 89.2948 17.105 88.6249 16.5607L87.742 17.6473C88.0961 17.935 88.2899 18.3041 88.3251 18.8087L89.7217 18.7113ZM88.6333 16.5677C87.9766 16.0169 87.1283 15.78 86.1674 15.78V17.18C86.9026 17.18 87.3983 17.3591 87.7336 17.6403L88.6333 16.5677ZM86.1674 15.78C85.2892 15.78 84.5052 15.9678 83.8849 16.417L84.706 17.551C85.0137 17.3282 85.4776 17.18 86.1674 17.18V15.78ZM83.8849 16.417C83.2504 16.8765 82.8994 17.5219 82.8994 18.304H84.2994C84.2994 17.9981 84.4124 17.7635 84.706 17.551L83.8849 16.417ZM82.8994 18.304C82.8994 18.8971 83.0922 19.4344 83.4985 19.8646L84.5163 18.9034C84.3787 18.7576 84.2994 18.5749 84.2994 18.304H82.8994ZM83.5268 19.8929C83.8833 20.2296 84.3085 20.4967 84.7907 20.7007L85.3362 19.4113C84.9864 19.2633 84.7075 19.0824 84.4881 18.8751L83.5268 19.8929ZM84.8203 20.7124C85.2792 20.8824 85.8929 21.0725 86.6528 21.2827L87.026 19.9333C86.282 19.7275 85.7116 19.5496 85.3066 19.3996L84.8203 20.7124ZM86.6562 21.2836C87.5826 21.5348 88.3157 21.7807 88.8656 22.0185L89.4213 20.7335C88.7872 20.4593 87.9843 20.1932 87.0227 19.9324L86.6562 21.2836ZM88.8804 22.0247C89.365 22.2212 89.7756 22.5202 90.1191 22.9298L91.1918 22.0302C90.7033 21.4478 90.1059 21.0108 89.4064 20.7273L88.8804 22.0247ZM90.1276 22.9397C90.4298 23.2867 90.6141 23.7653 90.6276 24.438L92.0273 24.41C92.0088 23.4827 91.7451 22.6653 91.1833 22.0203L90.1276 22.9397ZM90.6274 24.424C90.6274 25.0053 90.4688 25.5132 90.1525 25.9687L91.3024 26.7673C91.7861 26.0708 92.0274 25.2827 92.0274 24.424H90.6274ZM90.1525 25.9687C89.8346 26.4265 89.3722 26.8073 88.7327 27.0992L89.3141 28.3728C90.1466 27.9927 90.8203 27.4615 91.3024 26.7673L90.1525 25.9687ZM88.7391 27.0963C88.1246 27.3695 87.3926 27.516 86.5274 27.516V28.916C87.5503 28.916 88.4823 28.7425 89.3077 28.3757L88.7391 27.0963ZM103.626 15.256L103.294 15.872L103.304 15.8771L103.626 15.256ZM105.499 17.152L104.879 17.479L104.884 17.488L105.499 17.152ZM106.194 28V28.7H106.895V28H106.194ZM104.035 28H103.334V28.7H104.035V28ZM103.05 17.56L102.538 18.0372L102.544 18.0431L103.05 17.56ZM97.6025 17.584L97.0964 17.1004L97.0908 17.1064L97.6025 17.584ZM96.5945 28V28.7H97.2945V28H96.5945ZM94.4105 28H93.7105V28.7H94.4105V28ZM94.4105 10.24V9.54H93.7105V10.24H94.4105ZM96.5945 10.24H97.2945V9.54H96.5945V10.24ZM96.5945 16.72H95.8945V19.1034L97.1833 17.0985L96.5945 16.72ZM98.3705 15.16L98.068 14.5287L98.0628 14.5312L98.3705 15.16ZM100.938 15.308C101.825 15.308 102.605 15.5 103.294 15.8719L103.959 14.6401C103.048 14.148 102.036 13.908 100.938 13.908V15.308ZM103.304 15.8771C103.969 16.2231 104.494 16.7484 104.88 17.479L106.117 16.825C105.607 15.8596 104.884 15.1209 103.949 14.6349L103.304 15.8771ZM104.884 17.488C105.279 18.2097 105.494 19.1197 105.494 20.248H106.895C106.895 18.9443 106.646 17.7903 106.113 16.816L104.884 17.488ZM105.494 20.248V28H106.895V20.248H105.494ZM106.194 27.3H104.035V28.7H106.194V27.3ZM104.735 28V20.56H103.334V28H104.735ZM104.735 20.56C104.735 19.1374 104.378 17.9379 103.557 17.0769L102.544 18.0431C103.035 18.5581 103.334 19.3586 103.334 20.56H104.735ZM103.563 17.0828C102.75 16.211 101.655 15.804 100.362 15.804V17.204C101.342 17.204 102.039 17.501 102.538 18.0372L103.563 17.0828ZM100.362 15.804C99.052 15.804 97.9375 16.2202 97.0964 17.1004L98.1086 18.0676C98.6435 17.5078 99.369 17.204 100.362 17.204V15.804ZM97.0908 17.1064C96.2569 17.9998 95.8945 19.2455 95.8945 20.728H97.2945C97.2945 19.4585 97.6041 18.6082 98.1142 18.0616L97.0908 17.1064ZM95.8945 20.728V28H97.2945V20.728H95.8945ZM96.5945 27.3H94.4105V28.7H96.5945V27.3ZM95.1105 28V10.24H93.7105V28H95.1105ZM94.4105 10.94H96.5945V9.54H94.4105V10.94ZM95.8945 10.24V16.72H97.2945V10.24H95.8945ZM97.1833 17.0985C97.5428 16.5393 98.0352 16.1034 98.6782 15.7888L98.0628 14.5312C97.2018 14.9526 96.5102 15.5567 96.0057 16.3415L97.1833 17.0985ZM98.673 15.7913C99.3367 15.4732 100.088 15.308 100.938 15.308V13.908C99.9013 13.908 98.9403 14.1108 98.068 14.5287L98.673 15.7913ZM116.16 17.848L116.777 18.1805L116.779 18.1764L116.16 17.848ZM118.417 15.472L118.068 14.8648L118.064 14.8674L118.417 15.472ZM125.737 15.808L125.315 16.367L125.319 16.37L125.737 15.808ZM127.825 19.072V19.772H128.714L128.505 18.9078L127.825 19.072ZM125.473 19.072L124.798 19.2607L124.942 19.772H125.473V19.072ZM124.153 17.176L123.742 17.7428L123.748 17.7475L124.153 17.176ZM118.729 17.776L119.247 18.2459L119.252 18.2411L118.729 17.776ZM118.729 25.072L119.252 24.6069L118.729 25.072ZM124.153 25.696L124.554 26.2695L124.153 25.696ZM125.473 23.776V23.076H124.946L124.8 23.582L125.473 23.776ZM127.825 23.776L128.502 23.9534L128.731 23.076H127.825V23.776ZM125.713 27.016L126.135 27.574L126.141 27.5699L125.713 27.016ZM118.417 27.376L118.064 27.9807L118.068 27.9832L118.417 27.376ZM116.16 25L115.542 25.3284L116.16 25ZM116.045 21.4C116.045 20.1344 116.297 19.0688 116.777 18.1805L115.544 17.5155C114.936 18.6432 114.645 19.9456 114.645 21.4H116.045ZM116.779 18.1764C117.264 17.2622 117.927 16.5681 118.769 16.0766L118.064 14.8674C116.986 15.4959 116.145 16.3858 115.542 17.5196L116.779 18.1764ZM118.765 16.0792C119.624 15.5864 120.613 15.332 121.753 15.332V13.932C120.396 13.932 119.161 14.2376 118.068 14.8648L118.765 16.0792ZM121.753 15.332C123.254 15.332 124.423 15.6946 125.315 16.367L126.158 15.249C124.97 14.3534 123.483 13.932 121.753 13.932V15.332ZM125.319 16.37C126.232 17.0474 126.843 17.9884 127.144 19.2362L128.505 18.9078C128.134 17.3716 127.353 16.1366 126.154 15.246L125.319 16.37ZM127.825 18.372H125.473V19.772H127.825V18.372ZM126.147 18.8833C125.881 17.9342 125.349 17.1647 124.557 16.6045L123.748 17.7475C124.268 18.1153 124.616 18.6098 124.798 19.2607L126.147 18.8833ZM124.563 16.6093C123.78 16.0414 122.828 15.78 121.753 15.78V17.18C122.597 17.18 123.245 17.3826 123.742 17.7427L124.563 16.6093ZM121.753 15.78C120.322 15.78 119.118 16.2846 118.205 17.3109L119.252 18.2411C119.875 17.5394 120.687 17.18 121.753 17.18V15.78ZM118.21 17.3061C117.288 18.324 116.877 19.7232 116.877 21.4H118.276C118.276 19.9408 118.633 18.924 119.247 18.2459L118.21 17.3061ZM116.877 21.4C116.877 23.0916 117.287 24.5041 118.205 25.5371L119.252 24.6069C118.634 23.9119 118.276 22.8764 118.276 21.4H116.877ZM118.205 25.5371C119.118 26.5634 120.322 27.068 121.753 27.068V25.668C120.687 25.668 119.875 25.3086 119.252 24.6069L118.205 25.5371ZM121.753 27.068C122.823 27.068 123.772 26.817 124.554 26.2695L123.751 25.1225C123.253 25.471 122.602 25.668 121.753 25.668V27.068ZM124.554 26.2695C125.339 25.7196 125.866 24.938 126.145 23.97L124.8 23.582C124.599 24.278 124.246 24.7764 123.751 25.1225L124.554 26.2695ZM125.473 24.476H127.825V23.076H125.473V24.476ZM127.147 23.5986C126.833 24.7997 126.213 25.7447 125.284 26.4621L126.141 27.5699C127.324 26.6553 128.112 25.4403 128.502 23.9534L127.147 23.5986ZM125.29 26.458C124.378 27.1489 123.215 27.516 121.753 27.516V28.916C123.458 28.916 124.935 28.4831 126.135 27.574L125.29 26.458ZM121.753 27.516C120.613 27.516 119.624 27.2616 118.765 26.7688L118.068 27.9832C119.161 28.6104 120.396 28.916 121.753 28.916V27.516ZM118.769 26.7714C117.927 26.2799 117.264 25.5858 116.779 24.6716L115.542 25.3284C116.145 26.4622 116.986 27.3521 118.064 27.9806L118.769 26.7714ZM116.779 24.6716C116.298 23.766 116.045 22.6828 116.045 21.4H114.645C114.645 22.8692 114.935 24.186 115.542 25.3284L116.779 24.6716ZM130.739 17.848L131.355 18.1805L131.357 18.1764L130.739 17.848ZM132.971 15.472L132.618 14.8673L132.613 14.87L132.971 15.472ZM139.163 15.376L138.809 15.9802V15.9802L139.163 15.376ZM141.059 17.248L140.446 17.5868L141.759 17.248H141.059ZM141.059 14.848V14.148H140.359V14.848H141.059ZM143.267 14.848H143.967V14.148H143.267V14.848ZM143.267 28V28.7H143.967V28H143.267ZM141.059 28H140.359V28.7H141.059V28ZM141.059 25.552H141.759V22.8797L140.449 25.2088L141.059 25.552ZM139.115 27.472L139.468 28.0762L139.471 28.0742L139.115 27.472ZM132.971 27.352L132.606 27.9495L132.971 27.352ZM130.739 24.928L131.359 24.6036L130.739 24.928ZM138.827 17.128L138.469 17.7295L138.477 17.7345L138.485 17.7392L138.827 17.128ZM134.363 17.104L134.015 16.4962L134.363 17.104ZM132.755 18.784L133.37 19.1183L132.755 18.784ZM132.755 24.016L132.137 24.3447L132.14 24.3503L132.755 24.016ZM134.363 25.72L134.005 26.3216L134.015 26.3278L134.363 25.72ZM138.827 25.72L139.174 26.3278L139.178 26.3252L138.827 25.72ZM140.459 24.016L141.074 24.3503L141.077 24.3447L140.459 24.016ZM130.623 21.376C130.623 20.1279 130.875 19.0699 131.355 18.1805L130.123 17.5155C129.515 18.6421 129.223 19.9361 129.223 21.376H130.623ZM131.357 18.1764C131.844 17.2592 132.501 16.5648 133.328 16.074L132.613 14.87C131.553 15.4992 130.721 16.3888 130.12 17.5196L131.357 18.1764ZM133.323 16.0766C134.171 15.5823 135.112 15.332 136.163 15.332V13.932C134.877 13.932 133.691 14.2417 132.618 14.8674L133.323 16.0766ZM136.163 15.332C137.212 15.332 138.086 15.557 138.809 15.9802L139.516 14.7718C138.544 14.203 137.417 13.932 136.163 13.932V15.332ZM138.809 15.9802C139.564 16.4219 140.099 16.96 140.446 17.5868L141.671 16.9092C141.186 16.032 140.457 15.3221 139.516 14.7718L138.809 15.9802ZM141.759 17.248V14.848H140.359V17.248H141.759ZM141.059 15.548H143.267V14.148H141.059V15.548ZM142.567 14.848V28H143.967V14.848H142.567ZM143.267 27.3H141.059V28.7H143.267V27.3ZM141.759 28V25.552H140.359V28H141.759ZM140.449 25.2088C140.085 25.8555 139.531 26.4115 138.758 26.8698L139.471 28.0742C140.426 27.5085 141.168 26.7845 141.669 25.8952L140.449 25.2088ZM138.761 26.8678C138.036 27.2918 137.17 27.516 136.139 27.516V28.916C137.379 28.916 138.497 28.6442 139.468 28.0762L138.761 26.8678ZM136.139 27.516C135.092 27.516 134.163 27.2596 133.335 26.7545L132.606 27.9495C133.666 28.5964 134.85 28.916 136.139 28.916V27.516ZM133.335 26.7545C132.506 26.2487 131.848 25.5382 131.359 24.6036L130.118 25.2524C130.717 26.3978 131.547 27.3033 132.606 27.9495L133.335 26.7545ZM131.359 24.6036C130.874 23.6762 130.623 22.606 130.623 21.376H129.223C129.223 22.802 129.515 24.0998 130.118 25.2524L131.359 24.6036ZM141.759 21.4C141.759 20.3127 141.539 19.3297 141.074 18.4737L139.844 19.1423C140.178 19.7583 140.359 20.5033 140.359 21.4H141.759ZM141.074 18.4737C140.615 17.629 139.979 16.9695 139.168 16.5168L138.485 17.7392C139.05 18.0545 139.503 18.515 139.844 19.1423L141.074 18.4737ZM139.185 16.5265C138.4 16.0592 137.531 15.828 136.595 15.828V17.228C137.29 17.228 137.91 17.3968 138.469 17.7295L139.185 16.5265ZM136.595 15.828C135.664 15.828 134.799 16.0485 134.015 16.4962L134.71 17.7118C135.27 17.3915 135.894 17.228 136.595 17.228V15.828ZM134.015 16.4962C133.221 16.9501 132.596 17.6092 132.14 18.4497L133.37 19.1183C133.713 18.4868 134.16 18.0259 134.71 17.7118L134.015 16.4962ZM132.14 18.4497C131.674 19.3057 131.455 20.2887 131.455 21.376H132.855C132.855 20.4792 133.035 19.7343 133.37 19.1183L132.14 18.4497ZM131.455 21.376C131.455 22.4776 131.674 23.4745 132.137 24.3447L133.373 23.6873C133.036 23.0535 132.855 22.2904 132.855 21.376H131.455ZM132.14 24.3503C132.595 25.1887 133.217 25.8526 134.005 26.3215L134.721 25.1185C134.165 24.7874 133.714 24.3153 133.37 23.6817L132.14 24.3503ZM134.015 26.3278C134.799 26.7755 135.664 26.996 136.595 26.996V25.596C135.894 25.596 135.27 25.4325 134.71 25.1122L134.015 26.3278ZM136.595 26.996C137.526 26.996 138.39 26.7755 139.174 26.3278L138.479 25.1122C137.919 25.4325 137.296 25.596 136.595 25.596V26.996ZM139.178 26.3252C139.983 25.8572 140.616 25.1928 141.074 24.3503L139.844 23.6817C139.501 24.3112 139.046 24.7828 138.475 25.1148L139.178 26.3252ZM141.077 24.3447C141.539 23.476 141.759 22.4877 141.759 21.4H140.359C140.359 22.2963 140.179 23.052 139.841 23.6873L141.077 24.3447ZM148.901 27.712L148.619 28.3528L148.63 28.3574L148.901 27.712ZM147.005 26.272L146.444 26.6897L146.449 26.6967L147.005 26.272ZM146.237 24.136V23.436H145.494L145.539 24.1779L146.237 24.136ZM148.493 24.136L149.19 24.068L149.128 23.436H148.493V24.136ZM149.405 25.744L148.98 26.3001L148.988 26.3059L149.405 25.744ZM153.509 23.152L153.166 23.7621L153.174 23.7662L153.181 23.7702L153.509 23.152ZM151.133 22.312L150.956 22.9891L150.961 22.9905L151.133 22.312ZM148.733 21.544L148.448 22.183L148.458 22.1875L148.468 22.1916L148.733 21.544ZM147.149 20.368L146.608 20.8113L146.615 20.8202L146.623 20.829L147.149 20.368ZM147.101 16.456L146.532 16.0491L147.101 16.456ZM148.805 15.136L149.085 15.7781L149.096 15.7728L148.805 15.136ZM156.293 18.76V19.46H157.029L156.993 18.725L156.293 18.76ZM154.109 18.76L153.411 18.8087L153.457 19.46H154.109V18.76ZM153.269 17.104L152.819 17.6404L152.828 17.6473L153.269 17.104ZM149.381 16.984L148.971 16.417L149.381 16.984ZM149.093 19.384L148.584 19.8646L148.598 19.8792L148.613 19.8929L149.093 19.384ZM150.149 20.056L149.877 20.7007L149.891 20.7069L149.906 20.7124L150.149 20.056ZM151.925 20.608L151.739 21.2827L151.742 21.2836L151.925 20.608ZM154.229 21.376L153.952 22.0185L153.959 22.0217L153.966 22.0247L154.229 21.376ZM155.741 22.48L155.205 22.9299L155.214 22.9397L155.741 22.48ZM156.413 24.424H157.114L157.113 24.41L156.413 24.424ZM155.813 26.368L155.238 25.9687L155.813 26.368ZM154.109 27.736L154.394 28.3757L154.4 28.3728L154.109 27.736ZM151.613 27.516C150.684 27.516 149.874 27.3612 149.172 27.0666L148.63 28.3574C149.529 28.7348 150.527 28.916 151.613 28.916V27.516ZM149.183 27.0713C148.476 26.76 147.944 26.3486 147.562 25.8473L146.449 26.6967C146.994 27.4114 147.727 27.96 148.619 28.3527L149.183 27.0713ZM147.567 25.8543C147.187 25.3431 146.976 24.7626 146.936 24.0941L145.539 24.1779C145.595 25.1094 145.896 25.9529 146.444 26.6897L147.567 25.8543ZM146.237 24.836H148.493V23.436H146.237V24.836ZM147.797 24.204C147.88 25.0616 148.289 25.7713 148.98 26.3001L149.831 25.188C149.434 24.8847 149.234 24.5224 149.19 24.068L147.797 24.204ZM148.988 26.3059C149.699 26.8342 150.586 27.068 151.589 27.068V25.668C150.801 25.668 150.232 25.4858 149.823 25.1821L148.988 26.3059ZM151.589 27.068C152.518 27.068 153.342 26.8628 153.983 26.3715L153.131 25.2605C152.812 25.5052 152.324 25.668 151.589 25.668V27.068ZM153.983 26.3715C154.62 25.8833 154.977 25.2211 154.977 24.424H153.577C153.577 24.7469 153.455 25.0127 153.131 25.2605L153.983 26.3715ZM154.977 24.424C154.977 24.0296 154.889 23.6501 154.685 23.3122C154.481 22.9745 154.186 22.719 153.838 22.5338L153.181 23.7702C153.344 23.857 153.434 23.9495 153.486 24.0358C153.538 24.1219 153.577 24.2424 153.577 24.424H154.977ZM153.853 22.5419C153.259 22.2078 152.395 21.9098 151.306 21.6335L150.961 22.9905C152.016 23.2582 152.736 23.5202 153.166 23.7621L153.853 22.5419ZM151.311 21.6349C150.352 21.3833 149.584 21.1364 148.999 20.8964L148.468 22.1916C149.131 22.4636 149.963 22.7287 150.956 22.9891L151.311 21.6349ZM149.019 20.905C148.505 20.6752 148.059 20.3447 147.676 19.907L146.623 20.829C147.136 21.4153 147.745 21.8688 148.448 22.183L149.019 20.905ZM147.691 19.9247C147.384 19.5498 147.201 19.0308 147.201 18.304H145.801C145.801 19.2732 146.05 20.1302 146.608 20.8113L147.691 19.9247ZM147.201 18.304C147.201 17.7816 147.354 17.3072 147.671 16.8629L146.532 16.0491C146.049 16.7248 145.801 17.4824 145.801 18.304H147.201ZM147.671 16.8629C147.986 16.4222 148.445 16.0559 149.084 15.7779L148.526 14.4941C147.694 14.8561 147.017 15.3698 146.532 16.0491L147.671 16.8629ZM149.096 15.7728C149.727 15.4848 150.465 15.332 151.325 15.332V13.932C150.298 13.932 149.356 14.1152 148.515 14.4992L149.096 15.7728ZM151.325 15.332C152.662 15.332 153.668 15.6678 154.409 16.2769L155.298 15.1951C154.247 14.3322 152.901 13.932 151.325 13.932V15.332ZM154.409 16.2769C155.136 16.8737 155.539 17.6889 155.594 18.795L156.993 18.725C156.92 17.2711 156.363 16.0703 155.298 15.1951L154.409 16.2769ZM156.293 18.06H154.109V19.46H156.293V18.06ZM154.808 18.7113C154.747 17.8399 154.381 17.105 153.711 16.5607L152.828 17.6473C153.182 17.935 153.376 18.3041 153.411 18.8087L154.808 18.7113ZM153.719 16.5677C153.063 16.0169 152.214 15.78 151.253 15.78V17.18C151.989 17.18 152.484 17.3591 152.82 17.6403L153.719 16.5677ZM151.253 15.78C150.375 15.78 149.591 15.9678 148.971 16.417L149.792 17.551C150.1 17.3282 150.564 17.18 151.253 17.18V15.78ZM148.971 16.417C148.336 16.8765 147.985 17.5219 147.985 18.304H149.385C149.385 17.9981 149.498 17.7635 149.792 17.551L148.971 16.417ZM147.985 18.304C147.985 18.8971 148.178 19.4344 148.584 19.8646L149.602 18.9034C149.465 18.7576 149.385 18.5749 149.385 18.304H147.985ZM148.613 19.8929C148.969 20.2296 149.394 20.4967 149.877 20.7007L150.422 19.4113C150.072 19.2633 149.793 19.0824 149.574 18.8751L148.613 19.8929ZM149.906 20.7124C150.365 20.8824 150.979 21.0725 151.739 21.2827L152.112 19.9333C151.368 19.7275 150.798 19.5496 150.392 19.3996L149.906 20.7124ZM151.742 21.2836C152.669 21.5348 153.402 21.7807 153.952 22.0185L154.507 20.7335C153.873 20.4593 153.07 20.1932 152.109 19.9324L151.742 21.2836ZM153.966 22.0247C154.451 22.2212 154.862 22.5202 155.205 22.9298L156.278 22.0302C155.789 21.4478 155.192 21.0108 154.492 20.7273L153.966 22.0247ZM155.214 22.9397C155.516 23.2867 155.7 23.7653 155.714 24.438L157.113 24.41C157.095 23.4827 156.831 22.6653 156.269 22.0203L155.214 22.9397ZM155.713 24.424C155.713 25.0053 155.555 25.5132 155.238 25.9687L156.388 26.7673C156.872 26.0708 157.113 25.2827 157.113 24.424H155.713ZM155.238 25.9687C154.921 26.4265 154.458 26.8073 153.819 27.0992L154.4 28.3728C155.233 27.9927 155.906 27.4615 156.388 26.7673L155.238 25.9687ZM153.825 27.0963C153.211 27.3695 152.479 27.516 151.613 27.516V28.916C152.636 28.916 153.568 28.7425 154.394 28.3757L153.825 27.0963ZM168.712 15.256L168.38 15.872L168.389 15.8771L168.712 15.256ZM170.584 17.152L169.965 17.479L169.97 17.488L170.584 17.152ZM171.28 28V28.7H171.98V28H171.28ZM169.12 28H168.42V28.7H169.12V28ZM168.136 17.56L167.624 18.0372L167.63 18.0431L168.136 17.56ZM162.688 17.584L162.182 17.1004L162.177 17.1064L162.688 17.584ZM161.68 28V28.7H162.38V28H161.68ZM159.496 28H158.796V28.7H159.496V28ZM159.496 10.24V9.54H158.796V10.24H159.496ZM161.68 10.24H162.38V9.54H161.68V10.24ZM161.68 16.72H160.98V19.1034L162.269 17.0985L161.68 16.72ZM163.456 15.16L163.154 14.5287L163.149 14.5312L163.456 15.16ZM166.024 15.308C166.911 15.308 167.691 15.5 168.38 15.8719L169.045 14.6401C168.134 14.148 167.122 13.908 166.024 13.908V15.308ZM168.389 15.8771C169.055 16.2231 169.58 16.7484 169.965 17.479L171.203 16.825C170.693 15.8596 169.97 15.1209 169.035 14.6349L168.389 15.8771ZM169.97 17.488C170.365 18.2097 170.58 19.1197 170.58 20.248H171.98C171.98 18.9443 171.732 17.7903 171.199 16.816L169.97 17.488ZM170.58 20.248V28H171.98V20.248H170.58ZM171.28 27.3H169.12V28.7H171.28V27.3ZM169.82 28V20.56H168.42V28H169.82ZM169.82 20.56C169.82 19.1374 169.464 17.9379 168.643 17.0769L167.63 18.0431C168.121 18.5581 168.42 19.3586 168.42 20.56H169.82ZM168.649 17.0828C167.836 16.211 166.741 15.804 165.448 15.804V17.204C166.428 17.204 167.125 17.501 167.624 18.0372L168.649 17.0828ZM165.448 15.804C164.138 15.804 163.023 16.2202 162.182 17.1004L163.195 18.0676C163.729 17.5078 164.455 17.204 165.448 17.204V15.804ZM162.177 17.1064C161.343 17.9998 160.98 19.2455 160.98 20.728H162.38C162.38 19.4585 162.69 18.6082 163.2 18.0616L162.177 17.1064ZM160.98 20.728V28H162.38V20.728H160.98ZM161.68 27.3H159.496V28.7H161.68V27.3ZM160.196 28V10.24H158.796V28H160.196ZM159.496 10.94H161.68V9.54H159.496V10.94ZM160.98 10.24V16.72H162.38V10.24H160.98ZM162.269 17.0985C162.629 16.5393 163.121 16.1034 163.764 15.7888L163.149 14.5312C162.288 14.9526 161.596 15.5567 161.092 16.3415L162.269 17.0985ZM163.759 15.7913C164.423 15.4732 165.174 15.308 166.024 15.308V13.908C164.987 13.908 164.026 14.1108 163.154 14.5287L163.759 15.7913Z" fill="white"/>
<path d="M34.1422 5.85781C30.3647 2.08031 25.3422 0 20 0C14.6578 0 9.63531 2.08031 5.85781 5.85781C2.08031 9.63531 0 14.6578 0 20C0 25.3422 2.08039 30.3646 5.85781 34.1422C9.63523 37.9198 14.6578 40 20 40C25.3422 40 30.3647 37.9197 34.1422 34.1422C37.9197 30.3647 40 25.3422 40 20C40 14.6578 37.9196 9.63539 34.1422 5.85781Z" fill="#27C68C"/>
<g clip-path="url(#clip0_35212_417)">
<path d="M18 8V30.14" stroke="white" stroke-width="2" stroke-linecap="round" stroke-linejoin="round"/>
<path d="M22 10L22.2857 32.1429" stroke="white" stroke-width="2" stroke-linecap="round" stroke-linejoin="round"/>
<path d="M25.4286 11.7143H16.8571C15.7963 11.7143 14.7789 12.1357 14.0287 12.8859C13.2786 13.636 12.8571 14.6534 12.8571 15.7143C12.8571 16.7752 13.2786 17.7926 14.0287 18.5427C14.7789 19.2929 15.7963 19.7143 16.8571 19.7143H22.5714C23.6323 19.7143 24.6497 20.1357 25.3999 20.8859C26.15 21.636 26.5714 22.6534 26.5714 23.7143C26.5714 24.7752 26.15 25.7926 25.3999 26.5427C24.6497 27.2929 23.6323 27.7143 22.5714 27.7143H12.8571" stroke="white" stroke-width="2" stroke-linecap="round" stroke-linejoin="round"/>
</g>
<defs>
<clipPath id="clip0_35212_417">
<rect width="27.4286" height="27.4286" fill="white" transform="translate(6 6)"/>
</clipPath>
</defs>
</svg>
